<svg width="79" height="85" viewBox="0 0 79 85" fill="none" xmlns="http://www.w3.org/2000/svg">
<path d="M68.3157 17.0127L45.1734 4.84085C40.4741 2.44609 37.8389 2.32739 33.1394 4.84085L9.53424 17.0127C5.12585 20.0731 6.2943 23.7282 11.8485 26.6663C17.4026 29.6043 33.1394 37.5789 33.1394 37.5789" stroke="url(#paint0_linear)" stroke-width="5.76316" stroke-linecap="round"/>
<path d="M47.616 79.6488L71.9451 65.1643C74.8514 62.4114 75.7404 60.1504 76 54.885V29.654C74.3252 23.8542 71.8602 22.9337 66.9892 25.4488L45.8138 38.0643C41.1295 40.0144 39.8677 43.046 39.5063 49.7454V76.3781C38.2447 82.5143 36.9029 83.1172 31.3966 79.6488L8.41906 66.566C3.27636 63.028 2.91411 60.193 3.01258 54.885V31.0557" stroke="url(#paint1_linear)" stroke-width="5.76316" stroke-linecap="round"/>
<rect x="11.3794" y="37.5034" width="11.5263" height="5.76316" rx="2.88158" transform="rotate(27 11.3794 37.5034)" fill="url(#paint2_linear)"/>
<rect x="24.8059" y="43.3087" width="6.70486" height="5.76316" rx="2.88158" transform="rotate(27 24.8059 43.3087)" fill="url(#paint3_linear)"/>
<rect x="9.51074" y="48.9245" width="23.5844" height="5.76316" rx="2.88158" transform="rotate(27 9.51074 48.9245)" fill="url(#paint4_linear)"/>
<rect x="47.1841" y="50.0079" width="23.5844" height="5.76316" rx="2.88158" transform="rotate(-31.8028 47.1841 50.0079)" fill="url(#paint5_linear)"/>
<rect x="47.1841" y="62.5444" width="10.9203" height="5.76316" rx="2.88158" transform="rotate(-31.8028 47.1841 62.5444)" fill="url(#paint6_linear)"/>
<rect x="58.7104" y="54.8602" width="6.26288" height="5.76316" rx="2.88158" transform="rotate(-31.8028 58.7104 54.8602)" fill="url(#paint7_linear)"/>
<rect x="35.7029" y="12.833" width="7.72263" height="7.72263" rx="3.86132" transform="rotate(-31.8028 35.7029 12.833)" fill="url(#paint8_linear)"/>
<rect x="22.2104" y="18.5961" width="7.72263" height="7.72263" rx="3.86132" transform="rotate(-31.8028 22.2104 18.5961)" fill="url(#paint9_linear)"/>
<rect x="33.7368" y="26.2803" width="7.72263" height="7.72263" rx="3.86132" transform="rotate(-31.8028 33.7368 26.2803)" fill="url(#paint10_linear)"/>
<rect x="45.2632" y="20.5172" width="7.72263" height="7.72263" rx="3.86132" transform="rotate(-31.8028 45.2632 20.5172)" fill="url(#paint11_linear)"/>
<path d="M68.3157 17.0127L45.1734 4.84085C40.4741 2.44609 37.8389 2.32739 33.1394 4.84085L9.53424 17.0127C5.12585 20.0731 6.2943 23.7282 11.8485 26.6663C17.4026 29.6043 33.1394 37.5789 33.1394 37.5789" stroke="url(#paint12_linear)" stroke-width="5.76316" stroke-linecap="round"/>
<path d="M47.616 79.6488L71.9451 65.1643C74.8514 62.4114 75.7404 60.1504 76 54.885V29.654C74.3252 23.8542 71.8602 22.9337 66.9892 25.4488L45.8138 38.0643C41.1295 40.0144 39.8677 43.046 39.5063 49.7454V76.3781C38.2447 82.5143 36.9029 83.1172 31.3966 79.6488L8.41906 66.566C3.27636 63.028 2.91411 60.193 3.01258 54.885V31.0557" stroke="url(#paint13_linear)" stroke-width="5.76316" stroke-linecap="round"/>
<rect x="11.3794" y="37.5034" width="11.5263" height="5.76316" rx="2.88158" transform="rotate(27 11.3794 37.5034)" fill="url(#paint14_linear)"/>
<rect x="24.8059" y="43.3087" width="6.70486" height="5.76316" rx="2.88158" transform="rotate(27 24.8059 43.3087)" fill="url(#paint15_linear)"/>
<rect x="9.51074" y="48.9245" width="23.5844" height="5.76316" rx="2.88158" transform="rotate(27 9.51074 48.9245)" fill="url(#paint16_linear)"/>
<rect x="47.1841" y="50.0079" width="23.5844" height="5.76316" rx="2.88158" transform="rotate(-31.8028 47.1841 50.0079)" fill="url(#paint17_linear)"/>
<rect x="47.1841" y="62.5444" width="10.9203" height="5.76316" rx="2.88158" transform="rotate(-31.8028 47.1841 62.5444)" fill="url(#paint18_linear)"/>
<rect x="58.7104" y="54.8602" width="6.26288" height="5.76316" rx="2.88158" transform="rotate(-31.8028 58.7104 54.8602)" fill="url(#paint19_linear)"/>
<rect x="33.7368" y="26.2803" width="7.72263" height="7.72263" rx="3.86132" transform="rotate(-31.8028 33.7368 26.2803)" fill="url(#paint20_linear)"/>
<rect x="45.2632" y="20.5172" width="7.72263" height="7.72263" rx="3.86132" transform="rotate(-31.8028 45.2632 20.5172)" fill="url(#paint21_linear)"/>
<defs>
<linearGradient id="paint0_linear" x1="73.0445" y1="3.19873" x2="71.7524" y2="30.9546" gradientUnits="userSpaceOnUse">
<stop stop-color="#531FC1"/>
<stop offset="0.604167" stop-color="#A082E0"/>
<stop offset="1" stop-color="#3F85C6"/>
</linearGradient>
<linearGradient id="paint1_linear" x1="81.6154" y1="24.4628" x2="78.5993" y2="70.6258" gradientUnits="userSpaceOnUse">
<stop stop-color="#531FC1"/>
<stop offset="0.604167" stop-color="#A082E0"/>
<stop offset="1" stop-color="#3F85C6"/>
</linearGradient>
<linearGradient id="paint2_linear" x1="23.7923" y1="37.5366" x2="23.6008" y2="42.1646" gradientUnits="userSpaceOnUse">
<stop stop-color="#531FC1"/>
<stop offset="0.604167" stop-color="#A082E0"/>
<stop offset="1" stop-color="#3F85C6"/>
</linearGradient>
<linearGradient id="paint3_linear" x1="32.0265" y1="43.3418" x2="31.6984" y2="47.9545" gradientUnits="userSpaceOnUse">
<stop stop-color="#531FC1"/>
<stop offset="0.604167" stop-color="#A082E0"/>
<stop offset="1" stop-color="#3F85C6"/>
</linearGradient>
<linearGradient id="paint4_linear" x1="34.9093" y1="48.9576" x2="34.8156" y2="53.5917" gradientUnits="userSpaceOnUse">
<stop stop-color="#531FC1"/>
<stop offset="0.604167" stop-color="#A082E0"/>
<stop offset="1" stop-color="#3F85C6"/>
</linearGradient>
<linearGradient id="paint5_linear" x1="72.5826" y1="50.041" x2="72.4889" y2="54.6751" gradientUnits="userSpaceOnUse">
<stop stop-color="#531FC1"/>
<stop offset="0.604167" stop-color="#A082E0"/>
<stop offset="1" stop-color="#3F85C6"/>
</linearGradient>
<linearGradient id="paint6_linear" x1="58.9444" y1="62.5775" x2="58.7423" y2="67.2047" gradientUnits="userSpaceOnUse">
<stop stop-color="#531FC1"/>
<stop offset="0.604167" stop-color="#A082E0"/>
<stop offset="1" stop-color="#3F85C6"/>
</linearGradient>
<linearGradient id="paint7_linear" x1="65.4551" y1="54.8933" x2="65.1041" y2="59.5026" gradientUnits="userSpaceOnUse">
<stop stop-color="#531FC1"/>
<stop offset="0.604167" stop-color="#A082E0"/>
<stop offset="1" stop-color="#3F85C6"/>
</linearGradient>
<linearGradient id="paint8_linear" x1="44.0196" y1="12.8773" x2="43.5089" y2="19.0473" gradientUnits="userSpaceOnUse">
<stop stop-color="#531FC1"/>
<stop offset="0.604167" stop-color="#A082E0"/>
<stop offset="1" stop-color="#3F85C6"/>
</linearGradient>
<linearGradient id="paint9_linear" x1="30.5271" y1="18.6405" x2="30.0165" y2="24.8105" gradientUnits="userSpaceOnUse">
<stop stop-color="#531FC1"/>
<stop offset="0.604167" stop-color="#A082E0"/>
<stop offset="1" stop-color="#3F85C6"/>
</linearGradient>
<linearGradient id="paint10_linear" x1="42.0535" y1="26.3247" x2="41.5429" y2="32.4947" gradientUnits="userSpaceOnUse">
<stop stop-color="#531FC1"/>
<stop offset="0.604167" stop-color="#A082E0"/>
<stop offset="1" stop-color="#3F85C6"/>
</linearGradient>
<linearGradient id="paint11_linear" x1="53.5799" y1="20.5616" x2="53.0692" y2="26.7316" gradientUnits="userSpaceOnUse">
<stop stop-color="#531FC1"/>
<stop offset="0.604167" stop-color="#A082E0"/>
<stop offset="1" stop-color="#3F85C6"/>
</linearGradient>
<linearGradient id="paint12_linear" x1="73.0445" y1="3.19873" x2="71.7524" y2="30.9546" gradientUnits="userSpaceOnUse">
<stop stop-color="#531FC1"/>
<stop offset="0.604167" stop-color="#A082E0"/>
<stop offset="1" stop-color="#3F85C6"/>
</linearGradient>
<linearGradient id="paint13_linear" x1="81.6154" y1="24.4628" x2="78.5993" y2="70.6258" gradientUnits="userSpaceOnUse">
<stop stop-color="#531FC1"/>
<stop offset="0.604167" stop-color="#A082E0"/>
<stop offset="1" stop-color="#3F85C6"/>
</linearGradient>
<linearGradient id="paint14_linear" x1="23.7923" y1="37.5366" x2="23.6008" y2="42.1646" gradientUnits="userSpaceOnUse">
<stop stop-color="#531FC1"/>
<stop offset="0.604167" stop-color="#A082E0"/>
<stop offset="1" stop-color="#3F85C6"/>
</linearGradient>
<linearGradient id="paint15_linear" x1="32.0265" y1="43.3418" x2="31.6984" y2="47.9545" gradientUnits="userSpaceOnUse">
<stop stop-color="#531FC1"/>
<stop offset="0.604167" stop-color="#A082E0"/>
<stop offset="1" stop-color="#3F85C6"/>
</linearGradient>
<linearGradient id="paint16_linear" x1="34.9093" y1="48.9576" x2="34.8156" y2="53.5917" gradientUnits="userSpaceOnUse">
<stop stop-color="#531FC1"/>
<stop offset="0.604167" stop-color="#A082E0"/>
<stop offset="1" stop-color="#3F85C6"/>
</linearGradient>
<linearGradient id="paint17_linear" x1="72.5826" y1="50.041" x2="72.4889" y2="54.6751" gradientUnits="userSpaceOnUse">
<stop stop-color="#531FC1"/>
<stop offset="0.604167" stop-color="#A082E0"/>
<stop offset="1" stop-color="#3F85C6"/>
</linearGradient>
<linearGradient id="paint18_linear" x1="58.9444" y1="62.5775" x2="58.7423" y2="67.2047" gradientUnits="userSpaceOnUse">
<stop stop-color="#531FC1"/>
<stop offset="0.604167" stop-color="#A082E0"/>
<stop offset="1" stop-color="#3F85C6"/>
</linearGradient>
<linearGradient id="paint19_linear" x1="65.4551" y1="54.8933" x2="65.1041" y2="59.5026" gradientUnits="userSpaceOnUse">
<stop stop-color="#531FC1"/>
<stop offset="0.604167" stop-color="#A082E0"/>
<stop offset="1" stop-color="#3F85C6"/>
</linearGradient>
<linearGradient id="paint20_linear" x1="42.0535" y1="26.3247" x2="41.5429" y2="32.4947" gradientUnits="userSpaceOnUse">
<stop stop-color="#531FC1"/>
<stop offset="0.604167" stop-color="#A082E0"/>
<stop offset="1" stop-color="#3F85C6"/>
</linearGradient>
<linearGradient id="paint21_linear" x1="53.5799" y1="20.5616" x2="53.0692" y2="26.7316" gradientUnits="userSpaceOnUse">
<stop stop-color="#531FC1"/>
<stop offset="0.604167" stop-color="#A082E0"/>
<stop offset="1" stop-color="#3F85C6"/>
</linearGradient>
</defs>
</svg>
