<svg width="175" height="110" viewBox="0 0 175 110" fill="none" xmlns="http://www.w3.org/2000/svg">
<path d="M69.1385 105.953C69.1385 105.581 69.278 104.93 69.5571 104C75.6026 89.7698 82.2062 73.2608 89.3678 54.4732C96.5294 35.6855 103.133 19.0371 109.179 4.5278C110.481 2.10959 112.387 0.900487 114.899 0.900487C116.015 0.900487 116.945 1.22601 117.689 1.87707C118.433 2.52813 118.805 3.4117 118.805 4.5278C118.805 5.55089 117.642 8.75967 115.317 14.1541C112.992 19.5486 107.365 33.6393 98.4361 56.4263C89.6003 79.1203 82.8107 95.9083 78.0673 106.79C76.4862 108.929 74.7655 109.999 72.9054 109.999C70.3941 109.999 69.1385 108.65 69.1385 105.953ZM131.759 38.9873C132.782 38.9873 133.805 39.1733 134.828 39.5454C135.851 39.9174 137.06 40.5685 138.455 41.4985C139.944 42.3356 141.292 43.2192 142.501 44.1493C143.803 44.9863 145.571 46.1954 147.803 47.7766C150.035 49.3577 153.011 51.4039 156.731 53.9151C160.452 56.4263 165.335 60.1467 171.38 65.0761C173.426 66.8433 174.45 68.5174 174.45 70.0985C174.45 71.5867 173.705 73.1213 172.217 74.7024C171.38 75.5395 170.543 76.3766 169.706 77.2137C168.869 78.0507 166.59 79.7714 162.87 82.3756L158.685 85.3054C156.824 86.6075 153.569 88.8397 148.919 92.002C144.268 95.1642 139.99 98.373 136.084 101.628C135.619 101.907 134.735 102.047 133.433 102.047C132.131 102.047 130.875 101.489 129.666 100.373C128.55 99.2566 127.992 98.0475 127.992 96.7454C127.992 95.3502 128.271 94.2341 128.829 93.3971C133.293 90.1418 139.06 86.0959 146.129 81.2595C153.29 76.4231 158.592 72.6563 162.033 69.959C159.336 67.9128 155.104 64.9831 149.337 61.1698C143.571 57.2634 137.014 52.7525 129.666 47.6371C128.457 46.1489 127.852 44.7538 127.852 43.4517C127.852 42.1496 128.224 41.08 128.969 40.2429C129.806 39.4059 130.736 38.9873 131.759 38.9873Z" fill="url(#paint0_linear)"/>
<path d="M2.89795 76.5102C1.45943 75.2635 0.740164 73.777 0.740164 72.0508C0.740164 70.3246 1.55533 68.934 3.18566 67.8791C16.516 56.8504 28.7914 47.6438 40.0119 40.2594C40.9709 39.7799 42.0258 39.5402 43.1766 39.5402C44.4234 39.5402 45.5262 40.0676 46.4852 41.1225C47.5402 42.1775 48.0676 43.3762 48.0676 44.7188C48.0676 46.0615 47.684 47.2602 46.9168 48.3152C45.9578 48.9865 35.025 56.9463 14.1184 72.1947C16.4201 73.9209 21.5508 77.4693 29.5107 82.8398C37.5664 88.2102 43.4643 92.4299 47.2045 95.4988C47.9717 96.7455 48.3553 97.9443 48.3553 99.0951C48.3553 100.15 47.732 101.253 46.4852 102.404C45.2385 103.459 43.9439 103.986 42.6012 103.986C41.3545 103.986 40.5393 103.842 40.1557 103.555C36.1279 100.39 30.134 96.0742 22.1742 90.6078C14.3102 85.1414 7.88484 80.4422 2.89795 76.5102Z" fill="url(#paint1_linear)"/>
<defs>
<linearGradient id="paint0_linear" x1="231" y1="-39.9139" x2="215.912" y2="110.589" gradientUnits="userSpaceOnUse">
<stop stop-color="#531FC1"/>
<stop offset="0.604167" stop-color="#A082E0"/>
<stop offset="1" stop-color="#3F85C6"/>
</linearGradient>
<linearGradient id="paint1_linear" x1="58.9672" y1="-42.8793" x2="18.1818" y2="102.544" gradientUnits="userSpaceOnUse">
<stop stop-color="#531FC1"/>
<stop offset="0.604167" stop-color="#A082E0"/>
<stop offset="1" stop-color="#3F85C6"/>
</linearGradient>
</defs>
</svg>
